PathFileType	4	(X/Y/Z)	C:/Users/beibeiliu/ov580/test_trc\sequence.11_training_dense_left.trc
DataRate	CameraRate	NumFrames	NumMarkers	Units	OrigDataRate	OrigDataStartFrame	OrigNumFrames
120	120	13	19	mm	120	150	398
Frame#	Time	ThumbCMC			ThumbMCP			ThumbIP			ThumbTip			IndexMCP			IndexPIP			IndexTip			MiddleMCP			MiddlePIP			MiddleTip			RingMCP			RingPIP			RingTip			PinkyMCP			PinkyPIP			PinkyTip			BackHand1			BackHand2			BackHand3	
		X0	Y0	Z0	X1	Y1	Z1	X2	Y2	Z2	X3	Y3	Z3	X4	Y4	Z4	X5	Y5	Z5	X6	Y6	Z6	X7	Y7	Z7	X8	Y8	Z8	X9	Y9	Z9	X10	Y10	Z10	X11	Y11	Z11	X12	Y12	Z12	X13	Y13	Z13	X14	Y14	Z14	X15	Y15	Z15	X16	Y16	Z16	X17	Y17	Z17	X18	Y18	Z18	
149	1.24167	-201.103	-27.7387	14.3801	-182.646	-4.67969	-6.57791	-152.802	-8.08534	-11.4735	-131.959	-19.0064	4.50949	-167.588	-38.719	-41.8587	-160.125	-37.4305	-56.8837	-154.925	-35.9549	-83.423	-146.787	-47.4926	-28.6391	-131.205	-51.5817	-44.613	-115.165	-58.9387	-67.7413	-131.43	-48.7106	-12.2171	-113.709	-51.6887	-24.5422	-100.541	-55.8109	-34.3737	-122.863	-44.1695	12.6452	-106.12	-43.1358	8.06627	-85.9121	-44.369	0.930924	-156.942	-58.0242	17.277	-173.583	-64.2104	39.1475	-189.851	-56.9482	10.3457	
150	1.25	-199.679	-27.6695	12.5375	-179.381	-6.89956	-6.33035	-156.511	-5.84064	-10.3666	-132.087	-15.2515	2.59043	-168.368	-38.4974	-37.913	-163.828	-36.4023	-61.0672	-153.303	-37.5205	-79.6576	-142.32	-48.5328	-28.426	-127.133	-51.53	-46.4767	-116.989	-57.1352	-62.4465	-131.376	-49.2417	-14.2674	-114.216	-51.6225	-24.3425	-100.517	-55.934	-36.2589	-120.653	-46.187	14.715	-104.221	-43.1242	6.72897	-85.7923	-48.0548	1.63811	-161.806	-57.1645	19.1409	-175.645	-62.6342	37.6629	-189.946	-57.2789	10.8066	
151	1.25833	-202.948	-24.5413	9.95159	-180.377	-8.8079	-4.42756	-152.77	-8.04844	-10.904	-135.662	-18.6931	5.27014	-169.439	-38.4162	-36.9556	-162.555	-36.2948	-58.1531	-153.492	-37.153	-79.9761	-144.398	-47.8615	-25.4507	-129.938	-52.3087	-44.5479	-115.806	-58.4874	-64.0338	-129.69	-50.3831	-11.4914	-114.935	-52.2305	-23.8914	-102.73	-56.8466	-33.3366	-121.762	-45.7298	11.7806	-105.757	-44.7241	8.94184	-90.9007	-48.522	4.78663	-158.44	-58.92	17.6526	-175.08	-63.6148	38.1891	-185.403	-56.0564	10.2526	
152	1.26667	-202.404	-23.2141	11.1922	-182.627	-4.02562	-3.67662	-156.01	-5.42035	-10.1071	-134.677	-16.2214	2.49604	-170.389	-36.1094	-39.9225	-164.241	-34.1837	-60.4356	-155.738	-36.1228	-78.0044	-144.678	-48.5341	-27.1236	-133.013	-51.6808	-45.3386	-117.227	-58.7101	-61.0399	-134.015	-49.4477	-9.70887	-117.54	-52.4278	-20.9789	-100.293	-59.4829	-34.8111	-122.303	-46.6237	16.5503	-107.266	-45.1637	6.47646	-90.8987	-49.4728	2.6253	-162.701	-56.602	19.9749	-180.585	-62.9333	36.1843	-189.248	-54.7617	12.362	
153	1.275	-200.52	-20.7436	13.323	-179.579	-1.18146	-5.91037	-154.484	-8.16802	-7.90738	-134.625	-15.6561	2.04885	-167.215	-35.1762	-35.5966	-161.811	-33.4311	-61.8021	-151.255	-34.8728	-80.3089	-145.487	-48.1215	-30.9194	-131.681	-51.9821	-43.7217	-119.746	-58.6826	-63.1933	-132.757	-50.0312	-5.55013	-116.196	-54.9884	-22.0667	-105.47	-58.7242	-33.8236	-124.486	-46.1625	13.3997	-104.827	-47.2815	9.45118	-91.5819	-52.5601	4.68685	-159.845	-55.3895	17.9496	-180.668	-61.2554	39.1711	-191.058	-52.7148	13.1166	
154	1.28333	-198.212	-15.2997	13.8717	-174.554	2.70025	-6.36075	-147.196	-5.10442	-10.1288	-133.922	-18.3039	4.66054	-167.52	-30.9546	-40.9574	-156.987	-30.7449	-58.467	-150.073	-30.6682	-77.052	-144.028	-46.6792	-26.497	-133.506	-50.5854	-44.9117	-119.087	-59.9047	-64.4023	-136.281	-47.9311	-8.84978	-115.303	-55.8577	-21.6804	-104.265	-62.1057	-33.9587	-124.844	-47.4713	16.9262	-107.096	-49.8869	6.74047	-93.5727	-54.6568	5.83519	-164.711	-52.3647	18.1731	-182.262	-56.4878	39.8644	-190.562	-44.9246	10.1935	
155	1.29167	-195.854	-6.14342	17.157	-168.815	4.4201	-1.68615	-144.471	-1.04574	-7.44519	-125.399	-18.4448	4.45968	-166.929	-22.7222	-37.0119	-157.924	-22.9334	-59.7605	-148.347	-24.0662	-79.0609	-145.402	-42.8615	-27.3355	-131.579	-47.9471	-48.4434	-119.634	-57.6122	-62.2808	-135.609	-47.2017	-10.2924	-119.135	-55.8007	-20.3823	-106.808	-62.9597	-36.1876	-122.294	-48.9498	12.9583	-106.983	-52.1763	9.7712	-94.5248	-60.7618	4.81414	-165.795	-48.7523	17.0432	-185.259	-51.9428	37.84	-190.372	-40.8158	13.846	
156	1.3	-186.787	3.26494	16.7042	-161.632	11.8179	0.662474	-136.294	2.0868	-7.16284	-118.783	-14.5092	3.61515	-157.918	-18.3566	-37.2567	-151.092	-17.6223	-56.3257	-143.387	-17.0037	-76.7074	-141.799	-40.2379	-28.9022	-131.766	-44.6871	-45.9893	-119.197	-55.2901	-65.0215	-131.959	-48.9536	-10.0181	-121.041	-53.5794	-27.1483	-108.698	-63.7516	-39.701	-126.185	-47.5305	12.0727	-110.449	-53.7797	5.86073	-96.5827	-66.6217	3.44088	-162.442	-43.141	16.7843	-182.221	-43.0957	35.3527	-184.541	-30.8132	11.3801	
157	1.30833	-179.003	15.3039	22.0268	-150.425	21.3441	6.09616	-127.403	5.32716	-3.99177	-117.955	-16.7638	6.24385	-157.031	-5.61746	-35.5419	-147.828	-6.26903	-54.1823	-140.768	-6.3516	-77.7906	-143.064	-32.81	-26.7388	-133.783	-37.4972	-49.8142	-121.325	-49.9065	-70.5616	-132.937	-45.2938	-10.913	-123.39	-50.8798	-29.1778	-113.051	-62.4786	-45.0621	-125.331	-51.0305	9.46508	-113.289	-57.0397	1.29076	-100.718	-67.6785	-8.43201	-160.12	-39.6723	16.1123	-179.09	-37.7463	36.2614	-184.853	-16.7703	13.0208	
158	1.31667	-164.225	20.0568	24.8301	-135.061	24.3321	7.02458	-120.362	7.38315	0.88219	-110.734	-15.6932	4.75188	-149.28	1.40321	-35.3817	-141.581	2.45384	-55.2189	-135.136	1.59378	-75.2452	-142.382	-24.9536	-34.1638	-135.899	-29.649	-49.4899	-126.999	-40.8745	-70.7806	-135.382	-42.3067	-18.535	-128.581	-46.5054	-34.8771	-121.851	-57.0255	-48.3448	-128.106	-52.4967	4.6584	-118.048	-60.1841	-1.5658	-107.137	-73.3484	-14.9206	-161.137	-30.8934	17.3816	-177.621	-30.5759	36.261	-178.708	-7.09488	13.3458	
159	1.325	-150.685	27.6979	31.6075	-120.877	26.3463	10.0705	-108.698	5.86201	-1.63345	-105.027	-18.8346	1.55849	-142.319	14.9702	-30.353	-134.739	14.4057	-56.247	-128.418	12.0733	-72.3323	-141.839	-16.7829	-31.1951	-135.568	-23.0038	-53.7392	-131.944	-29.0231	-76.8706	-138.286	-35.0985	-19.144	-133.689	-38.3644	-40.292	-128.969	-47.4816	-57.7424	-133.86	-47.399	-2.12547	-124.778	-56.5928	-13.0452	-122.237	-68.1484	-25.2868	-161.473	-24.4715	15.2725	-175.138	-21.2914	33.8786	-170.145	1.39798	15.4339	
160	1.33333	-138.708	29.733	36.0722	-111.116	29.1673	14.8755	-98.3155	11.3704	-1.57031	-97.9553	-17.2244	-6.34641	-135.069	20.3287	-31.4923	-128.489	24.0559	-51.01	-122.923	25.5284	-74.3558	-139.99	-4.64098	-35.9033	-136.003	-8.98343	-56.5955	-136.184	-16.4183	-82.1655	-140.491	-23.5983	-21.6691	-138.095	-33.2738	-45.6502	-136.457	-36.8483	-60.5983	-137.964	-42.1365	-5.16189	-132.614	-54.8817	-22.004	-132.727	-62.0414	-38.2786	-158.074	-11.9627	9.64139	-169.701	-7.42021	34.6709	-163.928	15.2813	19.3298	
161	1.34167	-127.986	31.4431	37.5333	-99.0862	31.4058	16.7226	-91.6868	15.3818	-3.10132	-89.037	-6.74792	-15.8632	-126.344	31.4412	-27.6261	-120.766	34.2798	-47.341	-116.534	34.1634	-72.6093	-138.2	4.44712	-33.0198	-136.963	1.29181	-57.0277	-139.612	-0.427313	-80.8086	-144.087	-15.6963	-27.8193	-141.211	-16.6156	-47.4765	-144.882	-22.8557	-68.0427	-143.724	-32.7081	-10.4535	-140.743	-39.527	-27.2099	-146.321	-49.9594	-41.1575	-155.92	-4.91147	9.06533	-166.567	-3.83231	32.5618	-155.569	19.379	19.6285	
